<svg width="23" height="32" viewBox="0 0 23 32" fill="none" xmlns="http://www.w3.org/2000/svg">
<path d="M4.67753 18.5289H18.7804V12.9545C18.7804 12.351 18.6851 11.954 18.4945 11.7634C18.3039 11.5728 17.9069 11.4775 17.3034 11.4775H6.15452C5.55101 11.4775 5.15398 11.5728 4.9634 11.7634C4.77282 11.954 4.67753 12.351 4.67753 12.9545V18.5289ZM4.34401 8.66648H19.0662C21.5755 8.66648 22.8302 9.92112 22.8302 12.4304V21.34H4.67753V27.4862C4.67753 28.1214 4.77282 28.5343 4.9634 28.7249C5.15398 28.8837 5.55101 28.9631 6.15452 28.9631H17.1605C17.7957 28.9631 18.1928 28.8837 18.3516 28.7249C18.5422 28.5343 18.6374 28.1214 18.6374 27.4862V25.2469H22.6873V28.0103C22.6873 30.5195 21.4326 31.7742 18.9233 31.7742H4.34401C1.83472 31.7742 0.580078 30.5195 0.580078 28.0103V12.4304C0.580078 9.92112 1.83472 8.66648 4.34401 8.66648Z" fill="white"/>
<path d="M13.7708 0.22583V4.32328H9.43517V0.22583H13.7708Z" fill="white"/>
</svg>
